<svg width="25" height="26" viewBox="0 0 25 26" fill="none" xmlns="http://www.w3.org/2000/svg">
<path d="M6.33813 19.2909L10.322 17.7464L12.5 25.283L14.678 17.7464L18.6619 19.2909L17.1568 15.2025L24.5 12.9671L17.1568 10.7317L18.6619 6.64326L14.678 8.18781L12.5 0.651306L10.322 8.18781L6.33813 6.64326L7.84327 10.7317L0.5 12.9671L7.84327 15.2025L6.33813 19.2909ZM8.74707 16.8187L9.19111 15.6127L9.75488 15.7845L9.92224 16.363L8.74707 16.8187ZM16.2529 16.8187L15.0777 16.363L15.2449 15.7845L15.8089 15.6127L16.2529 16.8187ZM16.2529 9.1154L15.8089 10.3215L15.2451 10.1497L15.0777 9.57112L16.2529 9.1154ZM8.74707 9.1154L9.92224 9.57112L9.75507 10.1497L9.19111 10.3215L8.74707 9.1154ZM10.8828 11.3075L12.5 5.71192L14.1172 11.3075L19.5692 12.9671L14.1172 14.6266L12.5 20.2223L10.8828 14.6266L5.43085 12.9671L10.8828 11.3075Z" fill="#023C5E"/>
</svg>
